<svg width="298" height="161" viewBox="0 0 298 161" fill="none" xmlns="http://www.w3.org/2000/svg">
<line x1="0.5" y1="-0.5" x2="192.062" y2="-0.5" transform="matrix(-0.56174 0.827314 -0.830749 -0.556647 108.169 0)" stroke="#FFCD1E" stroke-linecap="round" stroke-dasharray="1 4"/>
<line x1="0.5" y1="-0.5" x2="192.062" y2="-0.5" transform="matrix(-0.56174 0.827314 -0.830749 -0.556647 115.698 0)" stroke="#FFCD1E" stroke-linecap="round" stroke-dasharray="1 4"/>
<line x1="0.5" y1="-0.5" x2="192.062" y2="-0.5" transform="matrix(-0.56174 0.827314 -0.830749 -0.556647 123.228 0)" stroke="#FFCD1E" stroke-linecap="round" stroke-dasharray="1 4"/>
<line x1="0.5" y1="-0.5" x2="192.062" y2="-0.5" transform="matrix(-0.56174 0.827314 -0.830749 -0.556647 130.757 0)" stroke="#FFCD1E" stroke-linecap="round" stroke-dasharray="1 4"/>
<line x1="0.5" y1="-0.5" x2="192.062" y2="-0.5" transform="matrix(-0.56174 0.827314 -0.830749 -0.556647 138.286 0)" stroke="#FFCD1E" stroke-linecap="round" stroke-dasharray="1 4"/>
<line x1="0.5" y1="-0.5" x2="192.062" y2="-0.5" transform="matrix(-0.56174 0.827314 -0.830749 -0.556647 145.815 0)" stroke="#FFCD1E" stroke-linecap="round" stroke-dasharray="1 4"/>
<line x1="0.5" y1="-0.5" x2="192.062" y2="-0.5" transform="matrix(-0.56174 0.827314 -0.830749 -0.556647 153.344 0)" stroke="#FFCD1E" stroke-linecap="round" stroke-dasharray="1 4"/>
<line x1="0.5" y1="-0.5" x2="192.062" y2="-0.5" transform="matrix(-0.56174 0.827314 -0.830749 -0.556647 160.873 0)" stroke="#FFCD1E" stroke-linecap="round" stroke-dasharray="1 4"/>
<line x1="0.5" y1="-0.5" x2="192.062" y2="-0.5" transform="matrix(-0.56174 0.827314 -0.830749 -0.556647 168.402 0)" stroke="#FFCD1E" stroke-linecap="round" stroke-dasharray="1 4"/>
<line x1="0.5" y1="-0.5" x2="192.062" y2="-0.5" transform="matrix(-0.56174 0.827314 -0.830749 -0.556647 175.931 0)" stroke="#FFCD1E" stroke-linecap="round" stroke-dasharray="1 4"/>
<line x1="0.5" y1="-0.5" x2="192.062" y2="-0.5" transform="matrix(-0.56174 0.827314 -0.830749 -0.556647 183.46 0)" stroke="#FFCD1E" stroke-linecap="round" stroke-dasharray="1 4"/>
<line x1="0.5" y1="-0.5" x2="192.062" y2="-0.5" transform="matrix(-0.56174 0.827314 -0.830749 -0.556647 190.989 0)" stroke="#FFCD1E" stroke-linecap="round" stroke-dasharray="1 4"/>
<line x1="0.5" y1="-0.5" x2="192.062" y2="-0.5" transform="matrix(-0.56174 0.827314 -0.830749 -0.556647 198.518 0)" stroke="#FFCD1E" stroke-linecap="round" stroke-dasharray="1 4"/>
<line x1="0.5" y1="-0.5" x2="192.062" y2="-0.5" transform="matrix(-0.56174 0.827314 -0.830749 -0.556647 206.047 0)" stroke="#FFCD1E" stroke-linecap="round" stroke-dasharray="1 4"/>
<line x1="0.5" y1="-0.5" x2="192.062" y2="-0.5" transform="matrix(-0.56174 0.827314 -0.830749 -0.556647 213.576 0)" stroke="#FFCD1E" stroke-linecap="round" stroke-dasharray="1 4"/>
<line x1="0.5" y1="-0.5" x2="192.062" y2="-0.5" transform="matrix(-0.56174 0.827314 -0.830749 -0.556647 221.106 0)" stroke="#FFCD1E" stroke-linecap="round" stroke-dasharray="1 4"/>
<line x1="0.5" y1="-0.5" x2="192.062" y2="-0.5" transform="matrix(-0.56174 0.827314 -0.830749 -0.556647 228.635 0)" stroke="#FFCD1E" stroke-linecap="round" stroke-dasharray="1 4"/>
<line x1="0.5" y1="-0.5" x2="192.062" y2="-0.5" transform="matrix(-0.56174 0.827314 -0.830749 -0.556647 236.164 0)" stroke="#FFCD1E" stroke-linecap="round" stroke-dasharray="1 4"/>
<line x1="0.5" y1="-0.5" x2="192.062" y2="-0.5" transform="matrix(-0.56174 0.827314 -0.830749 -0.556647 243.693 0)" stroke="#FFCD1E" stroke-linecap="round" stroke-dasharray="1 4"/>
<line x1="0.5" y1="-0.5" x2="192.062" y2="-0.5" transform="matrix(-0.56174 0.827314 -0.830749 -0.556647 251.222 0)" stroke="#FFCD1E" stroke-linecap="round" stroke-dasharray="1 4"/>
<line x1="0.5" y1="-0.5" x2="192.062" y2="-0.5" transform="matrix(-0.56174 0.827314 -0.830749 -0.556647 258.751 0)" stroke="#FFCD1E" stroke-linecap="round" stroke-dasharray="1 4"/>
<line x1="0.5" y1="-0.5" x2="192.062" y2="-0.5" transform="matrix(-0.561739 0.827314 -0.830749 -0.556647 266.28 0)" stroke="#FFCD1E" stroke-linecap="round" stroke-dasharray="1 4"/>
<line x1="0.5" y1="-0.5" x2="192.062" y2="-0.5" transform="matrix(-0.56174 0.827314 -0.830749 -0.556647 273.809 0)" stroke="#FFCD1E" stroke-linecap="round" stroke-dasharray="1 4"/>
<line x1="0.5" y1="-0.5" x2="192.062" y2="-0.5" transform="matrix(-0.56174 0.827314 -0.830749 -0.556647 281.338 0)" stroke="#FFCD1E" stroke-linecap="round" stroke-dasharray="1 4"/>
<line x1="0.5" y1="-0.5" x2="192.062" y2="-0.5" transform="matrix(-0.56174 0.827314 -0.830749 -0.556647 288.867 0)" stroke="#FFCD1E" stroke-linecap="round" stroke-dasharray="1 4"/>
<line x1="0.5" y1="-0.5" x2="192.062" y2="-0.5" transform="matrix(-0.56174 0.827314 -0.830749 -0.556647 296.396 0)" stroke="#FFCD1E" stroke-linecap="round" stroke-dasharray="1 4"/>
</svg>
